<svg xmlns="http://www.w3.org/2000/svg" viewBox="0 0 131 118.32"><defs><style>.cls-1{fill:#d83e9c;}.cls-1,.cls-2,.cls-3,.cls-4,.cls-5,.cls-6{stroke:#fff;stroke-miterlimit:10;stroke-width:3px;}.cls-2{fill:#4984bb;}.cls-3{fill:#6160ab;}.cls-4{fill:#8358a8;}.cls-5{fill:#a84ea3;}.cls-6{fill:#f29737;}</style></defs><g id="Layer_2" data-name="Layer 2"><g id="Layer_1-2" data-name="Layer 1"><path class="cls-1" d="M11.69,80.2c-.69-1-1.3-2.08-2.06-3C7,73.81,4.21,70.49,1.5,67.16v-11c3.35-4,6.78-7.87,10-12,.76-1,.7-2.61,1-3.94C17.57,35.32,22.8,30.51,27.7,25.4c7.17-7.49,14.11-15.21,21.14-22.83C56.65,5.81,61.52,11.29,62.5,21,57.08,21,52,20.7,47,21.07c-2.46.19-4.88,1.44-7.23,2.44a47.79,47.79,0,0,0-7.68,3.82c-1.49,1-3.35,2.68-3.41,4.13a5.34,5.34,0,0,0,3.05,4.22c1.4.37,4.39-.87,4.84-2.09,3-8.05,9-9.77,16.64-9.16,2.78.22,5.6,0,8.93,0,0,4.49,0,8.57,0,12.64a94.42,94.42,0,0,0-8,6.76c-4.07,4.23-7.82,8.77-11.7,13.18-6.3-.46-12.77,1.79-18.95-1.6-1.25-.69-4.37,0-5.19,1.12s-.5,4.33.52,5.22c1.25,1.07,3.79.95,5.74.83a37,37,0,0,0,6-1.34Z"/><path class="cls-2" d="M127.91,54.46l1.59,2.7v9c-3,3.85-6,7.63-8.85,11.6a6.64,6.64,0,0,0-1,4c.61,8.26-2.48,14.5-9.48,19-1.37.88-2.23,2.75-3,4.32C100,119.33,82,120.05,74.33,110.22l11.2-13.08c1.3-.6,3.46-.92,3.77-1.85,2-6.32,5.86-10,12.79-10.19,3.24-.09,3.74-1.63,1.41-3.95a36.41,36.41,0,0,1,3.32-4.76C113.79,69,120.87,61.76,127.91,54.46Z"/><path class="cls-3" d="M85.53,97.14l-11.2,13.08-5.08-9.73c-.12-.39-.23-.78-.35-1.17q0-10.06,0-20.14c1.17-.48,2.67-.65,3.46-1.49,7.13-7.47,14.14-15.07,21.18-22.63l8.85,1.64c.57,3.36,1.07,6.71,1.84,10,.07.28,2,.12,3.38.18-.38-2.1-.77-3.7-.92-5.31-.29-3.16.35-5.42,3.8-7.1,3.93-1.92,7.22-5.13,11.72-8.47l5.72,8.48c-7,7.29-14.12,14.56-21.09,21.92a36.41,36.41,0,0,0-3.32,4.76c-2.46.35-5.22.09-7.31,1.15-6.13,3.1-11.35,3-15.73-2.83-.1-.14-.61,0-1.58.09-.09,1.1-.73,2.88-.18,3.38,2.55,2.38,5.42,4.4,8.3,6.65Z"/><path class="cls-4" d="M93.52,55.06c-7,7.56-14,15.16-21.18,22.63-.79.84-2.29,1-3.46,1.49v-35l8.77-5.09c1-.18,2.29,0,2.8-.58,4.59-5.12,9.42-4.88,15-1.51,1.81,1.1,4.51.75,6.8,1.07l.46-2c-1.49-.67-3-1.43-4.48-2C94.37,32.64,91,30.71,90,26.3a62.92,62.92,0,0,0,5.49-3.72c3.67-3,7.2-6.28,10.79-9.43,1.54,1.77,3.21,3.44,4.61,5.32,2.86,3.84,5.57,7.79,8.35,11.69-1.07.33-2.45.34-3.16,1-4.58,4.5-9.14,9-13.42,13.79-1.76,2-2.79,4.61-4.16,7-2.59-.89-5.15-1.94-7.8-2.61-1.15-.3-2.5.15-3.77.26.62,1,1,2.31,1.89,3A31.21,31.21,0,0,0,93.52,55.06Z"/><path class="cls-5" d="M11.69,80.2,30.53,61.27H58.48C53.12,70.7,45.07,77.56,36.72,84.13c-2.21-1.67-4.56-3.1-6.95-.56s-1.38,5.09.83,7.3c-1.1,1.35-2.22,2.67-3.29,4-1.66,2.12-3.27,4.27-4.9,6.4C13.75,97,10.47,90.5,11.69,80.2Z"/><path class="cls-5" d="M77.65,39.11,68.88,44.2l.24-24c1.75-1,3.89-1.62,5.18-3,4.54-5,8.79-10.21,13.15-15.35,8.13-.66,14.85,3.37,18.85,11.32-3.59,3.15-7.12,6.38-10.79,9.43A62.92,62.92,0,0,1,90,26.3c-1.51-2,.63-6.42-4.79-6.59L86.3,30C82.63,32.43,77.38,33.16,77.65,39.11Z"/><path class="cls-4" d="M36.72,84.13c8.35-6.57,16.4-13.43,21.76-22.86,1.29.73,3.68,1.43,3.7,2.2.26,9.9.17,19.82.17,30.43-7.57-1.17-15.33,2.88-21.6-3.34C39,88.82,38,86.3,36.72,84.13Z"/><path class="cls-6" d="M48.84,2.57c-7,7.62-14,15.34-21.14,22.83-4.9,5.11-10.13,9.92-15.22,14.86C9.4,30.88,12.15,23.16,20.27,18a10,10,0,0,0,3.44-3.28C29.89,3.23,36.3.09,48.84,2.57Z"/><path class="cls-4" d="M22.41,101.31c1.63-2.13,3.24-4.28,4.9-6.4,1.07-1.37,2.19-2.69,3.29-4,1.78.3,4.25,0,5.21,1C40.7,97.25,47,97.72,53.5,97.7a43.16,43.16,0,0,1-3.34,5.21c-3.8,4.48-7.78,8.81-11.68,13.2C29.75,114.84,25.12,109.12,22.41,101.31Z"/><path class="cls-3" d="M38.48,116.11c3.9-4.39,7.88-8.72,11.68-13.2A43.16,43.16,0,0,0,53.5,97.7h8.32C62.53,109.38,50.1,119.06,38.48,116.11Z"/><path class="cls-5" d="M42.46,57c3.88-4.41,7.63-8.95,11.7-13.18a94.42,94.42,0,0,1,8-6.76c0,6.43,0,12.86,0,19.94Z"/><path class="cls-3" d="M98.52,51.93c1.37-2.34,2.4-5,4.16-7,4.28-4.78,8.84-9.29,13.42-13.79.71-.69,2.09-.7,3.16-1C121.14,44.34,112.52,53.39,98.52,51.93Z"/><path class="cls-1" d="M87.45,1.83C83.09,7,78.84,12.21,74.3,17.18c-1.29,1.42-3.43,2.05-5.18,3C69.49,9.68,76.31,2.84,87.45,1.83Z"/><path class="cls-4" d="M68.9,99.32c.12.39.23.78.35,1.17C69.13,100.1,69,99.71,68.9,99.32Z"/></g></g></svg>